<!DOCTYPE svg PUBLIC "-//W3C//DTD SVG 1.1//EN" "http://www.w3.org/Graphics/SVG/1.1/DTD/svg11.dtd">
<!-- Uploaded to: SVG Repo, www.svgrepo.com, Transformed by: SVG Repo Mixer Tools -->
<svg fill="#000000" width="800px" height="800px" viewBox="0 0 50 50" version="1.2" baseProfile="tiny" xmlns="http://www.w3.org/2000/svg" overflow="inherit">
<g id="SVGRepo_bgCarrier" stroke-width="0"/>
<g id="SVGRepo_tracerCarrier" stroke-linecap="round" stroke-linejoin="round"/>
<g id="SVGRepo_iconCarrier">
<path d="M41 40v-34c0-2.2-1.8-4-4-4h-24c-2.2 0-4 1.8-4 4v38c0 2.2 1.8 4 4 4h24c1.858 0 4 0 4-2v-1h-27c-1.1 0-2-.9-2-2v-3h29zm-27-30c0-.55.45-1 1-1h20c.55 0 1 .45 1 1v2c0 .55-.45 1-1 1h-20c-.55 0-1-.45-1-1v-2zm0 8c0-.55.45-1 1-1h20c.55 0 1 .45 1 1v2c0 .55-.45 1-1 1h-20c-.55 0-1-.45-1-1v-2z"/>
</g>
</svg>